<svg width="106" height="106" viewBox="0 0 106 106" fill="none" xmlns="http://www.w3.org/2000/svg">
<g clip-path="url(#clip0_1_5324)">
<mask id="mask0_1_5324" style="mask-type:luminance" maskUnits="userSpaceOnUse" x="9" y="0" width="87" height="106">
<path d="M95.5259 0H9.45825V105.093H95.5259V0Z" fill="white"/>
</mask>
<g mask="url(#mask0_1_5324)">
<path d="M95.5259 43.0684C95.5284 46.7207 95.0594 50.358 94.1305 53.8902C93.2229 57.3548 91.8937 60.695 90.1729 63.836C89.2102 65.5807 88.1227 67.2537 86.9191 68.8417C86.8722 68.9231 86.8378 68.9685 86.8268 68.9982L86.8159 69.0091C85.8784 70.2452 84.8769 71.4316 83.8155 72.5632C82.3102 74.164 80.6826 75.645 78.9475 76.9933C78.9475 76.9933 66.4628 85.9583 51.4878 85.9583L49.0303 85.9692L38.5198 86.0381V57.0641H52.5265C54.3709 57.0792 56.1984 56.7094 57.892 55.9785C59.5617 55.2693 61.0808 54.2478 62.3675 52.9688C63.6507 51.678 64.6698 50.1493 65.3678 48.4683C66.1024 46.7639 66.4717 44.9243 66.4518 43.0684C66.4581 42.1273 66.3689 41.1881 66.1859 40.2652C66.1798 40.2545 66.1762 40.2428 66.175 40.2307C66.0007 39.3425 65.7301 38.4759 65.3678 37.6465C63.9493 34.2631 61.2609 31.5706 57.8795 30.1473C56.1905 29.4157 54.367 29.0463 52.5265 29.0632H38.5198C38.5177 21.3561 35.4553 13.9652 30.0056 8.51535C24.556 3.06546 17.1654 0.00261716 9.45825 0.000129139H52.5265C56.3903 -0.00941941 60.2372 0.510591 63.9599 1.54565C67.5484 2.5468 70.9921 4.00909 74.2045 5.89596C75.359 6.57643 76.4774 7.31478 77.5631 8.10006L77.6538 8.15637C82.5158 11.685 86.5936 16.1831 89.63 21.3669C91.5147 24.5848 92.9769 28.0322 93.9804 31.624C95.0147 35.3505 95.5346 39.201 95.5259 43.0684Z" fill="#5AC268"/>
<path d="M90.8646 105.093H59.7601L54.8576 93.7516L51.4834 85.9536C66.4584 85.9536 78.9431 76.9886 78.9431 76.9886L82.5191 85.4358L83.1448 86.9015C83.1448 86.9125 83.1573 86.9125 83.1573 86.9234L90.8646 105.093Z" fill="#5AC268"/>
<path d="M38.5198 29.0631V105.088H9.45825V0C17.1654 0.00248803 24.556 3.06533 30.0056 8.51522C35.4553 13.9651 38.5177 21.3559 38.5198 29.0631Z" fill="#5AC268"/>
<g style="mix-blend-mode:multiply" opacity="0.16">
<path d="M38.5198 29.0631C38.5177 21.3559 35.4553 13.9651 30.0056 8.51522C24.556 3.06533 17.1654 0.00248803 9.45825 0H35.7744C41.6468 5.49225 47.2892 14.4916 48.6846 29.0631H38.5198Z" fill="black"/>
</g>
<g style="mix-blend-mode:multiply" opacity="0.16">
<path d="M49.0308 57.064V85.9643L38.5203 86.0332V57.064H49.0308Z" fill="black"/>
</g>
<g style="mix-blend-mode:multiply" opacity="0.16">
<path d="M82.5237 85.4342C73.9164 89.9452 64.5257 92.7683 54.8576 93.7516L51.4834 85.9536C66.4584 85.9536 78.9431 76.9886 78.9431 76.9886L82.5237 85.4342Z" fill="black"/>
</g>
<g style="mix-blend-mode:multiply" opacity="0.25">
<path d="M95.5261 43.0682C95.5286 46.7205 95.0596 50.3578 94.1307 53.89C93.2231 57.3546 91.8939 60.6949 90.173 63.8358C89.2104 65.5805 88.123 67.2535 86.9193 68.8416C87.1273 68.5068 87.6342 67.6996 88.3146 66.4654C89.5581 64.2164 90.6265 61.875 91.5105 59.462C92.7458 56.0847 93.594 52.578 94.0384 49.0094C94.2695 47.0104 94.3771 44.999 94.3607 42.9869C94.3403 40.9084 94.1709 38.834 93.8538 36.7797C93.553 34.7252 93.0975 32.6963 92.4913 30.7103C91.9056 28.7845 91.2009 26.8968 90.3811 25.0585C89.5994 23.337 88.7209 21.661 87.7499 20.0386C86.8114 18.5041 85.8352 17.0852 84.8763 15.8275C83.317 13.7857 81.6004 11.8688 79.7423 10.0944C78.3939 8.78978 77.5632 8.09836 77.5632 8.09836L77.654 8.15467C82.5161 11.6833 86.5939 16.1814 89.6302 21.3652C91.515 24.5831 92.9772 28.0305 93.9805 31.6223C95.015 35.3493 95.535 39.2003 95.5261 43.0682Z" fill="black"/>
</g>
<g style="mix-blend-mode:multiply" opacity="0.25">
<path d="M90.8643 105.093H67.6626C69.6008 104.805 71.528 104.631 73.4661 104.467C75.4043 104.303 77.3315 104.19 79.254 104.098C81.1766 104.006 83.1304 103.96 85.0576 103.924L89.0716 103.89C88.6789 102.922 88.2894 101.952 87.9187 100.971C87.307 99.4378 86.7298 97.9032 86.1761 96.3452C85.6223 94.7872 85.081 93.2307 84.5601 91.6523C84.0392 90.0739 83.5684 88.5034 83.1523 86.9109L90.8643 105.093Z" fill="black"/>
</g>
<g style="mix-blend-mode:screen" opacity="0.7">
<path d="M10.669 52.5526C10.658 55.8376 10.6455 59.1226 10.6236 62.3482C10.6017 65.5738 10.5532 68.7618 10.5188 71.8435C10.439 78.0037 10.3108 83.7493 10.1496 88.6753C9.86182 98.5304 9.45825 105.093 9.45825 105.093V0C9.45825 0 9.86182 6.57005 10.1496 16.4173C10.3061 21.3448 10.439 27.0889 10.5188 33.2507C10.5532 36.3308 10.6236 39.5157 10.6236 42.746C10.6236 45.9763 10.6549 49.2644 10.669 52.5526Z" fill="white"/>
</g>
<g style="mix-blend-mode:multiply" opacity="0.25">
<path d="M66.9825 45.3301C66.9389 46.1927 66.7998 47.0479 66.568 47.8799C66.4413 48.3179 66.2786 48.8029 66.1284 49.2174C65.9537 49.6839 65.7499 50.1389 65.5183 50.5799C65.0398 51.516 64.4512 52.3914 63.7648 53.1876C63.0544 54.0059 62.2571 54.7444 61.387 55.3901C60.4974 56.0126 59.5466 56.5425 58.5494 56.9716C57.5842 57.3805 56.5731 57.6709 55.5381 57.8367C54.577 57.9922 53.6011 58.0347 52.6301 57.9634C51.7541 57.918 50.9469 57.8367 50.1851 57.7553C47.1738 57.4675 45.1653 57.0639 45.1653 57.0639H52.5269C54.3713 57.0789 56.1987 56.7093 57.8924 55.9783C59.5621 55.2691 61.0812 54.2476 62.3679 52.9686C63.651 51.6777 64.6702 50.1491 65.3682 48.4681C66.1028 46.7637 66.4721 44.924 66.4522 43.0682C66.4585 42.1271 66.3693 41.188 66.1863 40.2649C66.3709 40.686 66.5179 41.1226 66.6259 41.5696C66.9292 42.7986 67.0495 44.0659 66.9825 45.3301Z" fill="black"/>
</g>
<g style="mix-blend-mode:screen" opacity="0.7">
<path d="M38.5201 29.0633V105.088C38.5201 105.088 38.4168 103.186 38.3011 99.8618C38.1853 96.5376 37.9882 91.7744 37.8631 86.0756C37.7066 80.3753 37.5862 73.7177 37.5048 66.5892C37.4704 63.0242 37.436 59.3434 37.4016 55.5937C37.3672 51.8441 37.3781 48.0491 37.3672 44.2526C37.3562 40.456 37.3891 36.6376 37.4125 32.9005C37.4016 31.0421 37.4595 29.1462 37.4016 27.3973C37.3201 25.657 37.0729 23.9285 36.6632 22.2351C35.8878 19.005 34.5605 15.933 32.74 13.1543C29.6702 8.49951 25.3359 4.81742 20.246 2.54058C18.4387 1.72953 16.5512 1.11083 14.6145 0.694708C13.361 0.424856 12.0936 0.22432 10.818 0.0940178C9.92944 0.0361388 9.45703 0.00172424 9.45703 0.00172424C17.1641 0.00421227 24.5548 3.06705 30.0043 8.51695C35.454 13.9668 38.5165 21.3577 38.5185 29.0648L38.5201 29.0633Z" fill="white"/>
</g>
</g>
</g>
<defs>
<clipPath id="clip0_1_5324">
<rect width="105.093" height="105.093" fill="white"/>
</clipPath>
</defs>
</svg>
